<?xml version="1.0" encoding="UTF-8" standalone="no"?>
<svg
   xmlns:dc="http://purl.org/dc/elements/1.1/"
   xmlns:cc="http://creativecommons.org/ns#"
   xmlns:rdf="http://www.w3.org/1999/02/22-rdf-syntax-ns#"
   xmlns:svg="http://www.w3.org/2000/svg"
   xmlns="http://www.w3.org/2000/svg"
   xmlns:sodipodi="http://sodipodi.sourceforge.net/DTD/sodipodi-0.dtd"
   xmlns:inkscape="http://www.inkscape.org/namespaces/inkscape"
   id="svg8"
   version="1.1"
   viewBox="0 0 152 156"
   height="156mm"
   width="152mm"
   sodipodi:docname="baby.svg"
   inkscape:version="0.92.1 r15371">
  <sodipodi:namedview
     pagecolor="#ffffff"
     bordercolor="#666666"
     borderopacity="1"
     objecttolerance="10"
     gridtolerance="10"
     guidetolerance="10"
     inkscape:pageopacity="0"
     inkscape:pageshadow="2"
     inkscape:window-width="1280"
     inkscape:window-height="960"
     id="namedview23"
     showgrid="false"
     showguides="false"
     inkscape:zoom="0.80053419"
     inkscape:cx="292.24076"
     inkscape:cy="365.46664"
     inkscape:window-x="1920"
     inkscape:window-y="27"
     inkscape:window-maximized="1"
     inkscape:current-layer="svg8" />
  <defs
     id="defs2">
    <filter
       height="1.9114857"
       y="-0.45574284"
       width="2.0634"
       x="-0.53170002"
       id="filter5500"
       style="color-interpolation-filters:sRGB">
      <feGaussianBlur
         id="feGaussianBlur5502"
         stdDeviation="2.0588643" />
    </filter>
    <filter
       height="1.9114857"
       y="-0.45574284"
       width="2.0634"
       x="-0.53170002"
       id="filter5500-6"
       style="color-interpolation-filters:sRGB">
      <feGaussianBlur
         id="feGaussianBlur5502-7"
         stdDeviation="2.0588643" />
    </filter>
  </defs>
  <metadata
     id="metadata5">
    <rdf:RDF>
      <cc:Work
         rdf:about="">
        <dc:format>image/svg+xml</dc:format>
        <dc:type
           rdf:resource="http://purl.org/dc/dcmitype/StillImage" />
        <dc:title />
      </cc:Work>
    </rdf:RDF>
  </metadata>
  <g
     transform="translate(0,-141)"
     id="layer1">
    <ellipse
       ry="66.602348"
       rx="66.215118"
       cy="229.56232"
       cx="76.356033"
       id="path4485"
       style="opacity:1;fill:#ebc29d;fill-opacity:0.265625;fill-rule:nonzero;stroke:#000000;stroke-width:1;stroke-miterlimit:4;stroke-dasharray:none;stroke-opacity:1" />
    <path
       id="path4487"
       d="m 9.7536875,232.07925 c -2e-6,3.10093 -1.785548,1.93611 -5.421121,1.93611 -3.63557403,0 -1.936113,-4.44991 -1.936115,-7.55084 2e-6,-3.10093 2.172771,-3.87223 5.808344,-3.87223 3.6355725,0 1.54889,6.38603 1.548892,9.48696 z"
       style="opacity:1;fill:#ebc29d;fill-opacity:0.27058825;fill-rule:nonzero;stroke:#000000;stroke-width:1;stroke-miterlimit:4;stroke-dasharray:none;stroke-opacity:1" />
    <path
       id="path4487-3"
       d="m 142.68556,225.30485 c -0.15529,-3.09704 1.68635,-2.0231 5.31736,-2.20517 3.63101,-0.18207 2.15653,4.34737 2.31183,7.44441 0.15529,3.09704 -1.97613,3.97618 -5.60713,4.15825 -3.63101,0.18207 -1.86676,-6.30045 -2.02206,-9.39749 z"
       style="opacity:1;fill:#ebc29d;fill-opacity:0.27058825;fill-rule:nonzero;stroke:#000000;stroke-width:1;stroke-miterlimit:4;stroke-dasharray:none;stroke-opacity:1" />
    <ellipse
       ry="13.552803"
       rx="12.197522"
       cy="211.36282"
       cx="43.248474"
       id="path4512"
       style="opacity:1;fill:#000000;fill-opacity:0.77690721;fill-rule:nonzero;stroke:none;stroke-width:1.06500006;stroke-miterlimit:4;stroke-dasharray:none;stroke-opacity:1" />
    <ellipse
       ry="5.4211211"
       rx="4.6466751"
       cy="204.39281"
       cx="47.314308"
       id="path4514"
       style="opacity:1;fill:#ffffff;fill-opacity:1;fill-rule:nonzero;stroke:none;stroke-width:1.06500006;stroke-miterlimit:4;stroke-dasharray:none;stroke-opacity:1;filter:url(#filter5500)" />
    <ellipse
       ry="13.552803"
       rx="12.197522"
       cy="211.70374"
       cx="105.8313"
       id="path4512-5"
       style="opacity:1;fill:#000000;fill-opacity:0.77690721;fill-rule:nonzero;stroke:none;stroke-width:1.06500006;stroke-miterlimit:4;stroke-dasharray:none;stroke-opacity:1" />
    <path
       id="path4514-3"
       style="opacity:1;fill:#ffffff;fill-opacity:1;fill-rule:nonzero;stroke:none;stroke-width:1.06500006;stroke-miterlimit:4;stroke-dasharray:none;stroke-opacity:1;filter:url(#filter5500-6)"
       sodipodi:type="arc"
       sodipodi:cx="110.33919"
       sodipodi:cy="205.46466"
       sodipodi:rx="4.6466751"
       sodipodi:ry="5.4211211"
       sodipodi:start="0"
       sodipodi:end="6.2305034"
       d="m 114.98586,205.46466 a 4.6466751,5.4211211 0 0 1 -4.58548,5.42065 4.6466751,5.4211211 0 0 1 -4.70626,-5.27787 4.6466751,5.4211211 0 0 1 4.46152,-5.55967 4.6466751,5.4211211 0 0 1 4.82378,5.13143 l -4.64023,0.28546 z" />
    <ellipse
       ry="12.197522"
       rx="11.810299"
       cy="267.34406"
       cx="74.206856"
       id="path5528"
       style="opacity:1;fill:#3ca34b;fill-opacity:1;fill-rule:nonzero;stroke:none;stroke-width:1.06500006;stroke-miterlimit:4;stroke-dasharray:none;stroke-opacity:1" />
    <ellipse
       ry="3.8238266"
       rx="4.1626468"
       cy="267.29565"
       cx="74.400459"
       id="path5533"
       style="opacity:1;fill:#007ae9;fill-opacity:1;fill-rule:nonzero;stroke:none;stroke-width:1.06500006;stroke-miterlimit:4;stroke-dasharray:none;stroke-opacity:1" />
    <path
       id="path5535"
       d="m 70.700346,267.42778 7.123688,0.0101 0.63369,6.95855 -3.969038,5.42113 -3.581811,-5.51793 z"
       style="opacity:1;fill:none;fill-opacity:1;fill-rule:nonzero;stroke:#007ae9;stroke-width:1.06500006;stroke-miterlimit:4;stroke-dasharray:none;stroke-opacity:1" />
    <path
       id="path5540"
       d="m 76.392421,171.59595 c 0.182543,-0.36508 0.448623,-0.69925 0.547613,-1.09523 0.0885,-0.35418 0,-0.73016 0,-1.09523 0,-0.85168 0.1228,-1.67107 -0.2738,-2.46428 -0.14717,-0.29433 -0.400453,-0.52709 -0.54762,-0.82142 -0.186671,-0.37334 -0.38953,-1.17997 -0.273809,-1.64285 0.0495,-0.19799 0.209272,-0.354 0.273809,-0.54761 0.53904,-1.61712 -0.07479,-0.62209 0.82142,-2.19047 0.42927,-0.75121 1.02526,-1.3883 1.36905,-2.19046 0.19361,-0.45176 0.4284,-0.89222 0.54761,-1.36904 0.0664,-0.26564 0,-0.54762 0,-0.82143 0,-0.63888 0,-1.27777 0,-1.91665 0,-0.36508 0,-0.73016 0,-1.09523 0,-0.27381 0.0537,-0.55294 0,-0.82143 -0.22037,-1.10183 -0.1998,-0.1258 -0.54761,-0.82142 -0.12908,-0.25815 -0.20381,-0.54142 -0.27381,-0.82143 -0.1124,-0.44958 0.29214,-0.25547 -0.27381,-0.82142 -0.23269,-0.23269 -0.55816,-0.35017 -0.82143,-0.54761 -0.10326,-0.0774 -0.18254,-0.18254 -0.2738,-0.27381 -0.456352,-0.45635 -0.873256,-0.95589 -1.369042,-1.36904 -0.252804,-0.21067 -0.588733,-0.31493 -0.821426,-0.54762 -0.06454,-0.0645 0.05063,-0.19787 0,-0.27381 -0.05352,-0.66134 -0.821423,-0.45634 -1.095232,-0.82142 -0.17317,-0.2309 -0.144732,-0.56327 -0.273807,-0.82142 -0.231957,-0.46392 -0.977601,-0.56047 -1.369041,-0.82143 -0.379704,-0.25313 -0.738883,-0.53635 -1.095232,-0.82142 -0.100788,-0.0806 -0.163126,-0.2074 -0.273807,-0.27381 -0.350001,-0.21 -0.745231,-0.33761 -1.095232,-0.54762 -0.284028,-0.17041 -0.535009,-0.67821 -0.821423,-0.82142 -0.06137,-0.0307 -1.030168,0 -1.095232,0 -0.821425,0 -1.642848,0 -2.464273,0 -0.456346,0 -0.912694,0 -1.369039,0 -0.273807,0 -0.552934,-0.0537 -0.821423,0 -0.414417,0.0829 -0.560567,0.28676 -0.821425,0.54762"
       style="fill:none;stroke:#ff6500;stroke-width:1.06500006;stroke-linecap:butt;stroke-linejoin:miter;stroke-miterlimit:4;stroke-dasharray:none;stroke-opacity:1" />
    <path
       id="path5542"
       d="m 76.392421,171.59595 c -0.126159,-0.39496 2.077053,-0.047 2.464273,-0.82143 0.0408,-0.0816 -0.0408,-0.19217 0,-0.2738 0.0577,-0.11545 0.23299,-0.15136 0.27381,-0.27381 0.62656,-1.87967 -1.0484,1.27537 0.27381,-1.36904 0.14716,-0.29434 0.40044,-0.52709 0.54761,-0.82143 0.12908,-0.25814 0.16662,-0.55344 0.27381,-0.82142 0.0758,-0.18949 0.21774,-0.35138 0.27381,-0.54761 0.12785,-0.44748 0.0848,-0.94377 0.27381,-1.36905 0.18534,-0.41701 0.61734,-0.68706 0.82142,-1.09523 0.33659,-0.67317 0.17421,-1.537 0.54761,-2.19046 0.19212,-0.3362 0.59636,-0.50633 0.82143,-0.82143 0.23724,-0.33213 0.34939,-0.73842 0.54762,-1.09523 0.25845,-0.46521 0.60528,-0.88272 0.82142,-1.36904 0.15284,-0.34388 0.10551,-0.75864 0.27381,-1.09523 0.11544,-0.23089 0.39757,-0.33755 0.54762,-0.54761 0.30932,-0.43306 0.58342,-0.89304 0.82142,-1.36904 0.0408,-0.0816 -0.0289,-0.18722 0,-0.27381 0.0645,-0.19361 0.18254,-0.36508 0.27381,-0.54762 0.0913,-0.18254 0.15136,-0.38435 0.27381,-0.54761 0.15489,-0.20652 0.39272,-0.3411 0.54761,-0.54762 0.31117,-0.41488 0.50575,-1.24825 0.82142,-1.64285 0.2419,-0.30237 0.59636,-0.50632 0.82143,-0.82142 0.23724,-0.33214 0.3212,-0.75562 0.54762,-1.09523 0.14319,-0.2148 0.36507,-0.36508 0.54761,-0.54762 0.36508,-0.36508 0.67511,-0.79514 1.09523,-1.09523 0.23486,-0.16776 0.58128,-0.11371 0.82143,-0.27381 1.53683,-1.02456 0.17408,-0.61725 1.36904,-1.09523 0.26797,-0.10719 0.54142,-0.20381 0.82142,-0.27381 0.0885,-0.0221 0.19218,0.0408 0.27381,0 0.23089,-0.11545 0.31672,-0.43217 0.54761,-0.54761 0.16327,-0.0816 0.38435,0.0816 0.54762,0 0.11545,-0.0577 0.15836,-0.21609 0.27381,-0.27381 0.0816,-0.0408 0.18526,0.0221 0.27381,0 0.28,-0.07 0.54142,-0.20381 0.82142,-0.27381 0.0885,-0.0222 0.19218,0.0408 0.27381,0 0.11545,-0.0577 0.15136,-0.23299 0.27381,-0.27381 0.1472,-0.0491 0.86341,0 1.09523,0 0.86549,0 1.62682,-0.0612 2.464266,0.27381 0.11984,0.0479 0.18254,0.18254 0.27381,0.27381"
       style="fill:none;stroke:#ff6500;stroke-width:1.06500006;stroke-linecap:butt;stroke-linejoin:miter;stroke-miterlimit:4;stroke-dasharray:none;stroke-opacity:1" />
    <path
       id="path5544"
       d="m 76.392421,171.59595 c 0.324383,-4.91589 2.214693,-0.46442 3.285693,-0.82143 0.19362,-0.0645 0.3475,-0.23378 0.54762,-0.2738 0.26849,-0.0537 0.55293,0.0537 0.82143,0 0.20012,-0.04 0.34749,-0.23379 0.54761,-0.27381 0.26849,-0.0537 0.5672,0.10169 0.82142,0 0.23969,-0.0959 0.32626,-0.4148 0.54762,-0.54762 0.24749,-0.14849 0.54762,-0.18254 0.82142,-0.2738 0.27381,-0.0913 0.54762,-0.18254 0.82143,-0.27381 0.27381,-0.0913 0.58128,-0.11371 0.82142,-0.27381 0.32219,-0.21479 0.48523,-0.62931 0.82143,-0.82143 0.97194,-0.55539 0.93289,0.0204 1.64284,-0.54761 0.30238,-0.2419 0.50633,-0.59636 0.82143,-0.82142 2.64833,-1.32417 -0.0296,0.15912 1.64285,-1.09524 0.16326,-0.12245 0.36508,-0.18254 0.54761,-0.27381 0.18254,-0.0913 0.35813,-0.19801 0.54762,-0.2738 0.55659,-0.22264 0.88744,-0.22656 1.36904,-0.54762 0.21479,-0.14319 0.33282,-0.40442 0.54762,-0.54761 0.1698,-0.11321 0.38434,-0.15136 0.54761,-0.27381 0.56748,-0.42562 1.07972,-1.19235 1.64285,-1.64285 0.25697,-0.20557 0.55816,-0.35017 0.82142,-0.54762 0.20652,-0.15489 0.33283,-0.40442 0.54762,-0.54761 0.16981,-0.11321 0.38435,-0.15136 0.54761,-0.27381 0.33739,-0.25304 0.74666,-0.86285 1.09524,-1.09523 1.38322,-0.92215 0.006,-0.002 0.82142,-0.27381 0.795316,-0.2651 0.38205,-0.28654 1.095226,-0.82142 0.36693,-0.2752 0.97461,-0.38985 1.36904,-0.54762 0.18949,-0.0758 0.36508,-0.18254 0.54762,-0.27381 0.18254,-0.0913 0.37781,-0.1606 0.54761,-0.27381 0.31534,-0.21022 0.51792,-0.59379 0.82143,-0.82142 0.26326,-0.19745 0.55816,-0.35017 0.82142,-0.54762 0.20652,-0.15489 0.33283,-0.40442 0.54762,-0.54761 0.71774,-0.47849 0.47849,-0.10234 1.36904,-0.54762 0.11545,-0.0577 0.18254,-0.18254 0.2738,-0.27381 0.31924,-0.31923 0.61735,-0.72584 1.09524,-0.82142 0.26849,-0.0537 0.54761,0 0.82142,0 0.45635,0 0.9127,0 1.36904,0 0.0913,0 0.18254,0 0.27381,0 0.0913,0 0.27381,-0.0913 0.27381,0 0,0.0913 -0.33835,-0.0645 -0.27381,0 0.22883,0.22883 0.8664,0.31879 1.09523,0.54762 0.14431,0.14431 0.20927,0.354 0.27381,0.54761 0.0151,0.0453 0.007,1.08485 0,1.09523 -0.1432,0.2148 -0.39273,0.3411 -0.54762,0.54762 -0.99459,1.32613 0.28986,-0.0161 -0.54761,0.82142"
       style="fill:none;stroke:#ff6500;stroke-width:1.06500006;stroke-linecap:butt;stroke-linejoin:miter;stroke-miterlimit:4;stroke-dasharray:none;stroke-opacity:1" />
  </g>
</svg>
