<?xml version="1.0" encoding="UTF-8" standalone="no"?>
<svg
   xmlns:dc="http://purl.org/dc/elements/1.1/"
   xmlns:cc="http://creativecommons.org/ns#"
   xmlns:rdf="http://www.w3.org/1999/02/22-rdf-syntax-ns#"
   xmlns:svg="http://www.w3.org/2000/svg"
   xmlns="http://www.w3.org/2000/svg"
   id="svg8"
   version="1.1"
   viewBox="0 0 4.96 8.1951219"
   height="48"
   width="31">
  <defs
     id="defs2">
    <radialGradient
       id="radialGradient12741"
       cx="1.7396395"
       cy="293.73383"
       fx="1.7396395"
       fy="293.73383"
       r="1.955163"
       gradientTransform="matrix(1,0,0,2.0016736,0,-294.22541)"
       gradientUnits="userSpaceOnUse" />
  </defs>
  <metadata
     id="metadata5">
    <rdf:RDF>
      <cc:Work
         rdf:about="">
        <dc:format>image/svg+xml</dc:format>
        <dc:type
           rdf:resource="http://purl.org/dc/dcmitype/StillImage" />
        <dc:title></dc:title>
      </cc:Work>
    </rdf:RDF>
  </metadata>
  <g
     transform="translate(0.68220339,-289.36845)"
     id="layer1"
     style="stroke:url(#radialGradient12741);stroke-opacity:1;stroke-width:0.4194878;stroke-miterlimit:4;stroke-dasharray:none">
    <path
       id="marker-body"
       d="M 6.5859375,0.11328125 A 6.5858432,5.1836473 0 0 0 0,5.296875 6.5858432,5.1836473 0 0 0 0.28710938,6.7949219 H 0.26953125 L 6.4824219,26.322266 12.824219,6.9414062 A 6.5858432,5.1836473 0 0 0 13.171875,5.296875 6.5858432,5.1836473 0 0 0 6.5859375,0.11328125 Z"
       style="opacity:1;fill:#004387;fill-opacity:1;fill-rule:nonzero;stroke:url(#radialGradient12741);stroke-width:1.58546573;stroke-miterlimit:4;stroke-dasharray:none;stroke-opacity:1"
       transform="matrix(0.26458333,0,0,0.26458333,0,290)" />
  </g>
  <path
     style="opacity:1;fill:#ffffff;fill-opacity:1;fill-rule:nonzero;stroke:none;stroke-width:0.20487805;stroke-miterlimit:4;stroke-dasharray:none;stroke-opacity:1"
     id="path9576"
     d="M 4.1409651,2.8725949 3.0111698,2.0144881 2.2187983,3.9758578 2.6857804,2.636189 0.57555069,2.4886954 1.9939569,2.5188414 1.4821347,0.46631568 1.8917758,1.8246157 3.685682,0.70357862 2.5204479,1.5129082 Z" />
  <ellipse
     style="fill-rule:nonzero;stroke-width:0.20487806;stroke-miterlimit:4;stroke-dasharray:none"
     id="rating-default"
     cx="2.3739326"
     cy="6.0795627"
     rx="0.69450188"
     ry="0.68915957" />
</svg>
